<?xml version="1.0" encoding="utf-8"?>
<!-- Generator: Adobe Illustrator 19.0.0, SVG Export Plug-In . SVG Version: 6.00 Build 0)  -->
<svg version="1.1" id="Layer_1" xmlns="http://www.w3.org/2000/svg" xmlns:xlink="http://www.w3.org/1999/xlink" x="0px" y="0px"
	 width="30px" height="30px" viewBox="935 35 30 30" enable-background="new 935 35 30 30" xml:space="preserve">
<path fill="#FFFFFF" d="M935,50c0-2.721,0.669-5.229,2.01-7.53c1.341-2.301,3.159-4.119,5.46-5.46c2.301-1.341,4.809-2.01,7.53-2.01
	s5.229,0.669,7.53,2.01c2.301,1.341,4.119,3.159,5.46,5.46c1.341,2.301,2.01,4.809,2.01,7.53s-0.669,5.229-2.01,7.53
	c-1.341,2.301-3.159,4.119-5.46,5.46C955.229,64.331,952.721,65,950,65s-5.229-0.669-7.53-2.01c-2.301-1.341-4.119-3.159-5.46-5.46
	C935.669,55.229,935,52.721,935,50z M937.49,50c0,3.12,1.05,5.871,3.15,8.25c0.96-1.881,2.481-3.669,4.56-5.37
	c2.079-1.701,4.11-2.769,6.09-3.21c-0.3-0.699-0.591-1.329-0.87-1.89c-3.441,1.101-7.161,1.65-11.16,1.65
	c-0.78,0-1.359-0.009-1.74-0.03c0,0.081-0.006,0.18-0.015,0.3C937.496,49.82,937.49,49.919,937.49,50z M937.88,46.91
	c0.441,0.039,1.089,0.06,1.95,0.06c3.339,0,6.51-0.45,9.51-1.35c-1.521-2.7-3.189-4.95-5.01-6.75
	c-1.581,0.801-2.934,1.911-4.065,3.33C939.134,43.619,938.339,45.191,937.88,46.91z M942.35,59.87c2.259,1.761,4.809,2.64,7.65,2.64
	c1.479,0,2.949-0.279,4.41-0.84c-0.399-3.42-1.179-6.729-2.34-9.93c-1.839,0.399-3.696,1.41-5.565,3.03S943.25,58.091,942.35,59.87z
	 M946.94,37.91c1.761,1.821,3.39,4.089,4.89,6.81c2.721-1.14,4.77-2.589,6.15-4.35c-2.319-1.92-4.98-2.88-7.98-2.88
	C948.98,37.49,947.96,37.631,946.94,37.91z M952.91,46.85c0.3,0.639,0.639,1.449,1.02,2.43c1.479-0.141,3.09-0.21,4.83-0.21
	c1.239,0,2.469,0.03,3.69,0.09c-0.159-2.721-1.14-5.139-2.94-7.26C958.211,43.841,956.009,45.491,952.91,46.85z M954.68,51.38
	c1.02,2.961,1.71,6,2.07,9.12c1.581-1.02,2.871-2.331,3.87-3.93s1.599-3.33,1.8-5.19c-1.461-0.099-2.79-0.15-3.99-0.15
	C957.329,51.23,956.081,51.281,954.68,51.38z"/>
</svg>
