<?xml version="1.0" encoding="utf-8"?>
<!-- Generator: Adobe Illustrator 19.0.0, SVG Export Plug-In . SVG Version: 6.00 Build 0)  -->
<svg version="1.1" id="Layer_1" xmlns="http://www.w3.org/2000/svg" xmlns:xlink="http://www.w3.org/1999/xlink" x="0px" y="0px"
	 width="2476px" height="2476px" viewBox="1188 -1188 2476 2476" enable-background="new 1188 -1188 2476 2476"
	 xml:space="preserve">
<path fill="#FFFFFF" d="M2013.45,50c0-227.9,184.7-412.7,412.6-412.7s412.7,184.8,412.7,412.7s-184.8,412.7-412.7,412.7
	S2013.45,277.9,2013.45,50 M1790.35,50c0,351.1,284.6,635.7,635.7,635.7s635.7-284.6,635.7-635.7s-284.6-635.7-635.7-635.7
	S1790.35-301.1,1790.35,50 M2938.35-610.9c0,82,66.5,148.6,148.6,148.6c82,0,148.6-66.6,148.6-148.6s-66.5-148.5-148.6-148.5
	S2938.35-692.9,2938.35-610.9 M1925.85,1057.7c-120.7-5.5-186.3-25.6-229.9-42.6c-57.8-22.5-99-49.3-142.4-92.6
	c-43.3-43.3-70.2-84.5-92.6-142.3c-17-43.6-37.1-109.2-42.6-229.9c-6-130.5-7.2-169.7-7.2-500.3s1.3-369.7,7.2-500.3
	c5.5-120.7,25.7-186.2,42.6-229.9c22.5-57.8,49.3-99,92.6-142.4c43.3-43.3,84.5-70.2,142.4-92.6c43.6-17,109.2-37.1,229.9-42.6
	c130.5-6,169.7-7.2,500.2-7.2c330.6,0,369.7,1.3,500.3,7.2c120.7,5.5,186.2,25.7,229.9,42.6c57.8,22.4,99,49.3,142.4,92.6
	c43.3,43.3,70.1,84.6,92.6,142.4c17,43.6,37.1,109.2,42.6,229.9c6,130.6,7.2,169.7,7.2,500.3c0,330.5-1.2,369.7-7.2,500.3
	c-5.5,120.7-25.7,186.3-42.6,229.9c-22.5,57.8-49.3,99-92.6,142.3s-84.6,70.1-142.4,92.6c-43.6,17-109.2,37.1-229.9,42.6
	c-130.5,6-169.7,7.2-500.3,7.2C2095.55,1064.9,2056.35,1063.7,1925.85,1057.7 M1915.65-1180.5c-131.8,6-221.8,26.9-300.5,57.5
	c-81.4,31.6-150.4,74-219.3,142.8c-68.8,68.8-111.2,137.8-142.8,219.3c-30.6,78.7-51.5,168.7-57.5,300.5
	c-6.1,132-7.5,174.2-7.5,510.4s1.4,378.4,7.5,510.4c6,131.8,26.9,221.8,57.5,300.5c31.6,81.4,73.9,150.5,142.8,219.3
	c68.8,68.8,137.8,111.1,219.3,142.8c78.8,30.6,168.7,51.5,300.5,57.5c132.1,6,174.2,7.5,510.4,7.5c336.3,0,378.4-1.4,510.4-7.5
	c131.8-6,221.8-26.9,300.5-57.5c81.4-31.7,150.4-74,219.3-142.8c68.8-68.8,111.1-137.9,142.8-219.3c30.6-78.7,51.6-168.7,57.5-300.5
	c6-132.1,7.4-174.2,7.4-510.4s-1.4-378.4-7.4-510.4c-6-131.8-26.9-221.8-57.5-300.5c-31.7-81.4-74-150.4-142.8-219.3
	c-68.8-68.8-137.9-111.2-219.2-142.8c-78.8-30.6-168.8-51.6-300.5-57.5c-132-6-174.2-7.5-510.4-7.5
	C2089.85-1188,2047.75-1186.6,1915.65-1180.5"/>
</svg>
