<?xml version="1.0" encoding="utf-8"?>
<!-- Generator: Adobe Illustrator 19.0.0, SVG Export Plug-In . SVG Version: 6.00 Build 0)  -->
<svg version="1.1" id="Layer_1" xmlns="http://www.w3.org/2000/svg" xmlns:xlink="http://www.w3.org/1999/xlink" x="0px" y="0px"
	 width="100px" height="100px" viewBox="0 0 100 100" style="enable-background:new 0 0 100 100;" xml:space="preserve">
<style type="text/css">
	.st0{fill:rgba(255,255,255,0.5);}
</style>
<g id="XMLID_22_">
	<g id="XMLID_18_">
		<path id="XMLID_19_" class="st0" d="M48.2,99L33.8,75.8l-2.5,4c-0.8,1.3-2.9,1.3-3.7,0L4,41.4c-2.6-4.2-4-9-4-13.8
			C0,13.9,10.9,2.2,25.3,0.3C26.6,0.1,28.1,0,29.5,0h41c1.4,0,2.9,0.1,4.2,0.3C89.1,2.2,100,13.9,100,27.6c0,4.8-1.4,9.5-4,13.8
			L72.3,79.8c-0.8,1.3-2.9,1.3-3.7,0l-2.5-4L51.8,99C51,100.3,49,100.3,48.2,99z M35.7,65.5L50,88.7l14.3-23.2
			c0.8-1.3,2.9-1.3,3.7,0l2.5,4l19.4-31.5c2-3.3,3-6.8,3-10.4c0-10.4-8.2-19.4-19.2-20.8l0,0c-1.1-0.1-2.1-0.2-3.2-0.2h-41
			c-1.1,0-2.2,0.1-3.2,0.2C15.3,8.3,7.1,17.2,7.1,27.6c0,3.7,1,7.2,3,10.4l19.4,31.5l2.5-4C32.8,64.2,34.9,64.2,35.7,65.5z"/>
	</g>
	<path id="XMLID_17_" class="st0" d="M33.8,36l-2.5,4c-0.8,1.3-2.9,1.3-3.7,0l-5.3-8.6c-0.8-1.2-1.1-2.5-1.1-3.8
		c0-3.3,2.6-7.1,7-7.7c0.4-0.1,0.8-0.1,1.3-0.1h41c0.4,0,0.9,0,1.2,0.1c4.4,0.6,7,4.4,7,7.7c0,1.3-0.4,2.6-1.1,3.8L72.3,40
		c-0.8,1.3-2.9,1.3-3.7,0l-2.5-4L51.8,59.2c-0.8,1.3-2.9,1.3-3.7,0L33.8,36z"/>
</g>
</svg>
