<?xml version="1.0" encoding="utf-8"?>
<!-- Generator: Adobe Illustrator 19.0.0, SVG Export Plug-In . SVG Version: 6.00 Build 0)  -->
<svg version="1.1" id="Layer_1" xmlns="http://www.w3.org/2000/svg" xmlns:xlink="http://www.w3.org/1999/xlink" x="0px" y="0px"
	 width="100px" height="100px" viewBox="0 0 100 100" enable-background="new 0 0 100 100" xml:space="preserve">
<path id="XMLID_1_" fill="#FFFFFF" d="M66.817,9.396V9.378h2.344h2.344l1.713,0.343c1.142,0.222,2.179,0.514,3.111,0.875
	c0.932,0.361,1.834,0.782,2.705,1.262c0.872,0.481,1.662,0.971,2.372,1.47c0.703,0.493,1.335,1.016,1.894,1.569
	c0.553,0.559,1.416,0.703,2.588,0.433c1.172-0.271,2.435-0.646,3.787-1.127s2.69-1.022,4.013-1.623
	c1.323-0.601,2.128-0.983,2.417-1.145c0.283-0.168,0.433-0.258,0.451-0.271l0.018-0.027l0.09-0.045l0.09-0.045l0.09-0.045
	l0.09-0.045l0.018-0.027l0.027-0.018l0.027-0.018l0.018-0.027l0.09-0.027l0.09-0.018l-0.018,0.135l-0.027,0.135l-0.045,0.135
	l-0.045,0.135l-0.045,0.09l-0.045,0.09l-0.045,0.135c-0.03,0.09-0.06,0.21-0.09,0.361c-0.03,0.15-0.316,0.751-0.857,1.803
	c-0.541,1.052-1.217,2.119-2.029,3.201c-0.812,1.082-1.539,1.9-2.182,2.453c-0.649,0.559-1.079,0.95-1.29,1.172
	c-0.21,0.228-0.466,0.439-0.766,0.631l-0.451,0.298l-0.09,0.045l-0.09,0.045l-0.018,0.027l-0.027,0.018l-0.027,0.018l-0.018,0.027
	l-0.09,0.045l-0.09,0.045l-0.018,0.027l-0.027,0.018l-0.027,0.018l-0.018,0.027l-0.018,0.027l-0.027,0.018l-0.027,0.018
	l-0.018,0.027h0.225h0.225l2.525-0.541c1.683-0.361,3.291-0.796,4.824-1.307c1.533-0.511,2.344-0.782,2.435-0.812
	s0.18-0.06,0.271-0.09l0.135-0.045l0.09-0.045l0.09-0.045l0.09-0.045l0.09-0.045l0.18-0.027l0.18-0.018v0.09v0.09l-0.045,0.018
	l-0.045,0.027l-0.018,0.027l-0.027,0.018l-0.027,0.018l-0.018,0.027l-0.018,0.027l-0.027,0.018l-0.027,0.018l-0.018,0.027
	l-0.018,0.027l-0.027,0.018l-0.045,0.09l-0.045,0.09l-0.027,0.018c-0.012,0.018-0.394,0.529-1.145,1.533
	c-0.751,1.01-1.157,1.521-1.217,1.533c-0.06,0.018-0.144,0.108-0.252,0.271c-0.102,0.168-0.739,0.839-1.912,2.011
	c-1.172,1.172-2.32,2.215-3.444,3.129c-1.13,0.92-1.701,2.05-1.713,3.39c-0.018,1.335-0.087,2.843-0.207,4.527
	c-0.12,1.683-0.346,3.502-0.676,5.455c-0.331,1.954-0.842,4.163-1.533,6.628c-0.691,2.465-1.533,4.869-2.525,7.214
	c-0.992,2.344-2.029,4.448-3.111,6.312c-1.082,1.864-2.074,3.442-2.976,4.734c-0.902,1.292-1.818,2.51-2.75,3.652
	c-0.932,1.142-2.11,2.429-3.535,3.859c-1.431,1.425-2.212,2.206-2.344,2.344c-0.138,0.132-0.727,0.625-1.767,1.479
	c-1.034,0.86-2.146,1.719-3.336,2.579c-1.184,0.854-2.272,1.566-3.264,2.137c-0.992,0.571-2.188,1.223-3.589,1.957
	c-1.395,0.739-2.904,1.425-4.527,2.056c-1.623,0.631-3.336,1.217-5.14,1.758c-1.803,0.541-3.547,0.962-5.23,1.262
	c-1.683,0.301-3.592,0.556-5.726,0.766l-3.201,0.316v0.027v0.018h-2.931h-2.931v-0.018v-0.027l-0.766-0.045
	c-0.511-0.03-0.932-0.06-1.262-0.09c-0.331-0.03-1.578-0.195-3.742-0.496c-2.164-0.301-3.862-0.601-5.095-0.902
	c-1.232-0.301-3.066-0.872-5.5-1.713c-2.435-0.842-4.518-1.692-6.249-2.552c-1.725-0.854-2.807-1.395-3.246-1.623
	c-0.433-0.222-0.92-0.499-1.461-0.83L0.451,81.83l-0.018-0.027l-0.027-0.018l-0.027-0.018L0.361,81.74l-0.09-0.045L0.18,81.65
	l-0.018-0.027l-0.027-0.018l-0.027-0.018L0.09,81.56l-0.018-0.027l-0.027-0.018H0.018H0v-0.09v-0.09l0.09,0.018l0.09,0.027
	l0.406,0.045c0.271,0.03,1.007,0.075,2.209,0.135c1.202,0.06,2.48,0.06,3.832,0c1.353-0.06,2.735-0.195,4.148-0.406
	c1.413-0.21,3.081-0.571,5.005-1.082c1.924-0.511,3.691-1.118,5.302-1.821c1.605-0.709,2.747-1.238,3.427-1.587
	c0.673-0.343,1.701-0.98,3.084-1.912l2.074-1.398l0.018-0.027l0.027-0.018l0.027-0.018l0.018-0.027l0.018-0.027l0.027-0.018
	l0.027-0.018l0.018-0.027l0.09-0.027l0.09-0.018l0.018-0.09l0.027-0.09l0.027-0.018l0.018-0.027l-0.721-0.045
	c-0.481-0.03-0.947-0.06-1.398-0.09c-0.451-0.03-1.157-0.165-2.119-0.406c-0.962-0.24-1.999-0.601-3.111-1.082
	c-1.112-0.481-2.194-1.052-3.246-1.713c-1.052-0.661-1.812-1.211-2.281-1.65c-0.463-0.433-1.064-1.046-1.803-1.84
	c-0.733-0.799-1.371-1.62-1.912-2.462s-1.058-1.813-1.551-2.913l-0.749-1.641l-0.045-0.135l-0.045-0.135l-0.027-0.09l-0.018-0.09
	l0.135,0.018l0.135,0.027l0.992,0.135c0.661,0.09,1.698,0.12,3.111,0.09c1.413-0.03,2.39-0.09,2.931-0.18
	c0.541-0.09,0.872-0.15,0.992-0.18l0.18-0.045l0.225-0.045l0.225-0.045l0.018-0.027l0.027-0.018l0.027-0.018l0.018-0.027
	l-0.18-0.045l-0.18-0.045l-0.18-0.045l-0.18-0.045l-0.18-0.045c-0.12-0.03-0.331-0.09-0.631-0.18
	c-0.301-0.09-1.112-0.421-2.435-0.992c-1.322-0.571-2.374-1.127-3.156-1.668c-0.781-0.541-1.527-1.133-2.236-1.776
	c-0.703-0.649-1.476-1.485-2.317-2.507c-0.842-1.022-1.593-2.209-2.254-3.562c-0.661-1.353-1.157-2.645-1.488-3.877
	c-0.331-1.232-0.547-2.48-0.649-3.742l-0.162-1.894l0.09,0.018l0.09,0.027l0.09,0.045l0.09,0.045l0.09,0.045l0.09,0.045l1.398,0.631
	c0.932,0.421,2.089,0.782,3.472,1.082c1.383,0.301,2.209,0.466,2.48,0.496l0.406,0.045h0.406h0.406l-0.018-0.027l-0.027-0.018
	l-0.027-0.018l-0.018-0.027l-0.018-0.027l-0.027-0.018l-0.027-0.018l-0.018-0.027l-0.09-0.045l-0.09-0.045l-0.018-0.027
	l-0.027-0.018l-0.027-0.018l-0.018-0.027l-0.09-0.045l-0.09-0.045l-0.018-0.027c-0.018-0.012-0.277-0.204-0.776-0.577
	c-0.493-0.379-1.01-0.869-1.551-1.47s-1.082-1.232-1.623-1.894c-0.541-0.661-1.022-1.368-1.443-2.119
	c-0.421-0.751-0.866-1.707-1.335-2.867c-0.463-1.154-0.815-2.317-1.055-3.49c-0.24-1.172-0.376-2.329-0.406-3.472
	c-0.03-1.142,0-2.119,0.09-2.931c0.09-0.812,0.271-1.728,0.541-2.75s0.661-2.104,1.172-3.246l0.766-1.713l0.045-0.135l0.045-0.135
	l0.027-0.018l0.018-0.027l0.018-0.027l0.027-0.018l0.027,0.018l0.018,0.027l0.018,0.027l0.027,0.018l0.027,0.018l0.018,0.027
	l0.018,0.027l0.027,0.018l0.045,0.09l0.045,0.09l0.027,0.018l0.018,0.027l1.217,1.353c0.812,0.902,1.773,1.909,2.885,3.021
	c1.112,1.112,1.728,1.689,1.849,1.731c0.12,0.048,0.271,0.186,0.451,0.415c0.18,0.222,0.782,0.754,1.803,1.596
	c1.022,0.842,2.36,1.818,4.013,2.931c1.653,1.112,3.487,2.209,5.5,3.291c2.014,1.082,4.178,2.059,6.492,2.931
	c2.314,0.872,3.938,1.443,4.869,1.713c0.932,0.271,2.525,0.616,4.779,1.037c2.254,0.421,3.953,0.691,5.095,0.812
	c1.142,0.12,1.924,0.189,2.344,0.207l0.631,0.018l-0.018-0.135l-0.027-0.135l-0.18-1.127c-0.12-0.751-0.18-1.803-0.18-3.156
	s0.105-2.6,0.316-3.742c0.21-1.142,0.526-2.299,0.947-3.472c0.421-1.172,0.833-2.113,1.235-2.822
	c0.409-0.703,0.944-1.506,1.605-2.408c0.661-0.902,1.518-1.833,2.57-2.795c1.052-0.962,2.254-1.818,3.607-2.57
	c1.353-0.751,2.6-1.323,3.742-1.713c1.142-0.391,2.104-0.646,2.885-0.766C66.426,9.483,66.817,9.414,66.817,9.396z"/>
</svg>
